Coordinates
version=1
nRows=14
nColumns=33
inDegrees=yes

Units are S.I. units (second, meters, Newtons, ...)
Angles are in degrees.

endheader
time	ground_thorax_rot_x	ground_thorax_rot_y	ground_thorax_rot_z	ground_thorax_tx	ground_thorax_ty	ground_thorax_tz	clav_prot_r	clav_elev_r	scapula_abduction_r	scapula_elevation_r	scapula_upward_rot_r	scapula_winging_r	shoulder_elv_r	plane_of_elev_r	axial_rot_r	elbow_flexion_r	pro_sup_r	wrist_flex_r	wrist_dev_r	clav_prot_l	clav_elev_l	scapula_abduction_l	scapula_elevation_l	scapula_upward_rot_l	scapula_winging_l	shoulder_elv_l	plane_of_elev_l	axial_rot_l	elbow_flexion_l	pro_sup_l	wrist_flex_l	wrist_dev_l	
4.2200	-40.593483	-4.966038	5.713101	-179.699443	897.206025	-3.284033	2.595732	-45.000000	41.939168	-45.000000	7.559326	2410.860326	-646.492372	22.949450	-180.000000	1803.783916	-74.959545	22.985532	11.427841	15.740083	38.757623	-40.909277	-45.000000	-44.219200	-272.456222	-2445.838312	21.937529	-37.738962	733.245136	50.013649	5.202014	-22.794533	
4.2300	-40.639661	-4.743861	5.517632	-177.011242	898.414440	-3.200167	2.422826	-45.000000	42.282333	-45.000000	9.075100	2410.929483	-646.305657	22.943510	-180.000000	1803.740121	-75.978008	22.939257	11.616212	15.775596	38.908320	-41.157936	-45.000000	-43.765199	-272.363814	-2445.770640	22.085077	-37.010499	733.184662	49.489938	5.198188	-22.751468	
4.2400	-40.703784	-4.526385	5.324451	-174.218124	899.376436	-3.093964	2.253401	-45.000000	42.608459	-45.000000	10.524508	2410.994934	-646.167545	22.944637	-180.000000	1803.692679	-77.176010	22.889070	11.813758	15.775925	39.073852	-41.395215	-45.000000	-43.179345	-272.271343	-2445.743020	22.206728	-36.348176	733.102338	48.745808	5.242190	-22.721212	
4.2500	-40.782762	-4.306658	5.134085	-171.321345	900.060904	-2.960529	2.083773	-45.000000	42.915477	-45.000000	11.924426	2411.055386	-646.067839	22.947418	-180.000000	1803.645144	-78.552314	22.826833	12.023087	15.748945	39.249509	-41.619354	-45.000000	-42.478395	-272.199412	-2445.750367	22.302009	-35.751983	732.998331	47.748569	5.338129	-22.703808	
4.2600	-40.878295	-4.106772	4.954909	-168.322927	900.441099	-2.796505	1.920266	-45.000000	43.214459	-45.000000	13.247116	2411.103101	-646.019290	22.962200	-180.000000	1803.611082	-80.094363	22.755895	12.242357	15.701855	39.435264	-41.831394	-45.000000	-41.712939	-272.135400	-2445.803811	22.390101	-35.216716	732.854878	46.465206	5.495650	-22.693639	
4.2700	-40.991966	-3.919350	4.784846	-165.226199	900.495735	-2.600712	1.727382	-45.000000	43.522420	-45.000000	14.617078	2411.129022	-645.986635	22.956165	-180.000000	1803.606305	-81.846794	22.631307	12.488718	15.701879	39.632079	-42.041537	-45.000000	-40.945262	-272.105679	-2445.880051	22.464436	-34.708552	732.677938	44.802974	5.711251	-22.683706	
4.2800	-41.123652	-3.758854	4.625138	-162.035079	900.210054	-2.374387	1.506186	-45.000000	43.840843	-45.000000	16.005478	2411.134665	-645.979666	22.936565	-180.000000	1803.640681	-83.852303	22.451459	12.764573	15.750169	39.839439	-42.249578	-45.000000	-40.210310	-272.099813	-2445.990054	22.538919	-34.204186	732.447783	42.652187	6.013076	-22.672973	
4.2900	-41.269466	-3.609875	4.475984	-158.754483	899.576518	-2.121126	1.259274	-45.000000	44.158137	-45.000000	17.415586	2411.118592	-645.994170	22.897977	-180.000000	1803.709843	-86.134066	22.209759	13.070660	15.844318	40.051943	-42.460783	-44.999999	-39.515741	-272.133949	-2446.126572	22.607029	-33.698121	732.173119	39.947817	6.415066	-22.662846	
4.3000	-41.428603	-3.451916	4.311961	-155.388969	898.595129	-1.846233	0.974506	-45.000000	44.442843	-45.000000	18.823778	2411.093375	-646.047013	22.857413	-180.000000	1803.838266	-88.849217	21.907625	13.420591	15.924072	40.260760	-42.673212	-44.999999	-38.843326	-272.205721	-2446.299523	22.678117	-33.168023	731.819978	36.393018	6.993212	-22.651027	
4.3100	-41.596187	-3.307256	4.176754	-151.943213	897.273524	-1.555788	0.671014	-45.000000	44.682447	-45.000000	20.155266	2411.064380	-646.136636	22.803591	-180.000000	1804.003880	-91.894014	21.541534	13.795139	16.041969	40.468883	-42.901716	-44.999998	-38.224772	-272.317356	-2446.497121	22.729492	-32.702342	731.418188	32.151623	7.697015	-22.617241	
4.3200	-41.766785	-3.178329	4.070821	-148.421199	895.626050	-1.255443	0.359783	-45.000000	44.852692	-45.000000	21.332318	2411.043156	-646.284394	22.753960	-180.000000	1804.196649	-95.157904	21.144813	14.172068	16.160402	40.669304	-43.140268	-44.999996	-37.638397	-272.460086	-2446.724654	22.765570	-32.320569	730.981398	27.414652	8.505191	-22.549014	
4.3300	-41.933627	-3.095321	4.031447	-144.826971	893.672319	-0.949381	0.082809	-45.000000	44.948879	-45.000000	22.242052	2411.034481	-646.508775	22.712489	-180.000000	1804.376335	-98.331400	20.760483	14.504837	16.288675	40.859953	-43.388569	-44.999993	-37.103413	-272.625827	-2446.975690	22.784343	-32.071892	730.565851	22.748340	9.311692	-22.433008	
4.3400	-42.094757	-3.040470	4.019633	-141.164533	891.434724	-0.639678	-0.183477	-45.000000	44.988215	-45.000000	22.986314	2411.029977	-646.801025	22.679087	-180.000000	1804.560899	-101.380129	20.392596	14.798327	16.395743	41.042982	-43.634404	-44.999987	-36.588713	-272.811615	-2447.255786	22.801359	-31.885284	730.175865	18.314312	10.095952	-22.266680	
4.3500	-42.246336	-3.048047	4.068155	-137.439167	888.936130	-0.326339	-0.418494	-45.000000	45.000000	-45.000000	23.538119	2411.020813	-647.153936	22.642282	-180.000000	1804.725283	-104.110366	20.050843	15.027439	16.532072	41.228330	-43.881541	-44.999977	-36.135677	-273.005196	-2447.558350	22.819351	-31.772942	729.850830	14.558610	10.760825	-22.047945	
